<?xml version="1.0" standalone="no"?>
<!DOCTYPE svg PUBLIC "-//W3C//DTD SVG 1.1//EN" "http://www.w3.org/Graphics/SVG/1.1/DTD/svg11.dtd" >
<svg>
<metadata>
Created by FontForge 20110222 at Wed Oct 30 04:52:51 2013
 By www-data
Copyright Darrell Flood 2013
</metadata>
<defs>
<font id="Terrablox" horiz-adv-x="704" >
  <font-face 
    font-family="Terrablox"
    font-weight="400"
    font-stretch="normal"
    units-per-em="1024"
    panose-1="0 0 4 0 0 0 0 0 0 0"
    ascent="819"
    descent="-205"
    x-height="640"
    cap-height="640"
    bbox="0 -128 640 768"
    underline-thickness="51"
    underline-position="127"
    unicode-range="U+0020-201D"
  />
    <missing-glyph />
    <glyph glyph-name="space" unicode=" " horiz-adv-x="320" 
 />
    <glyph glyph-name="exclam" unicode="!" horiz-adv-x="192" 
d="M0 0v128h128v-128h-128zM0 192v448h128v-448h-128z" />
    <glyph glyph-name="quotedbl" unicode="&#x22;" horiz-adv-x="384" 
d="M0 448v192h128v-192h-128zM192 448v192h128v-192h-128z" />
    <glyph glyph-name="numbersign" unicode="#" 
d="M384 256v128h-128v-128h128zM128 0v128h-128v128h128v128h-128v128h128v128h128v-128h128v128h128v-128h128v-128h-128v-128h128v-128h-128v-128h-128v128h-128v-128h-128z" />
    <glyph glyph-name="dollar" unicode="$" 
d="M512 192v64h-128v-64h128zM256 384v64h-128v-64h128zM256 0v64h-256v128h256v64h-256v320h256v64h128v-64h256v-128h-256v-64h256v-320h-256v-64h-128z" />
    <glyph glyph-name="percent" unicode="%" 
d="M0 0v128h128v-128h-128zM512 0v128h128v-128h-128zM128 128v128h128v-128h-128zM256 256v128h128v-128h-128zM384 384v128h128v-128h-128zM0 512v128h128v-128h-128zM512 512v128h128v-128h-128z" />
    <glyph glyph-name="ampersand" unicode="&#x26;" 
d="M256 0v256h-256v128h256v256h128v-256h256v-128h-256v-256h-128z" />
    <glyph glyph-name="quotesingle" unicode="'" horiz-adv-x="192" 
d="M0 448v192h128v-192h-128z" />
    <glyph glyph-name="parenleft" unicode="(" horiz-adv-x="320" 
d="M0 -128v896h256v-128h-128v-640h128v-128h-256z" />
    <glyph glyph-name="parenright" unicode=")" horiz-adv-x="320" 
d="M0 -128v128h128v640h-128v128h256v-896h-256z" />
    <glyph glyph-name="asterisk" unicode="*" horiz-adv-x="448" 
d="M128 256v128h-128v128h128v128h128v-128h128v-128h-128v-128h-128z" />
    <glyph glyph-name="plus" unicode="+" 
d="M256 0v256h-256v128h256v256h128v-256h256v-128h-256v-256h-128z" />
    <glyph glyph-name="comma" unicode="," horiz-adv-x="192" 
d="M0 0v192h128v-192h-128z" />
    <glyph glyph-name="hyphen" unicode="-" horiz-adv-x="448" 
d="M0 256v128h384v-128h-384z" />
    <glyph glyph-name="period" unicode="." horiz-adv-x="192" 
d="M0 0v128h128v-128h-128z" />
    <glyph glyph-name="slash" unicode="/" 
d="M0 0v128h128v-128h-128zM128 128v128h128v-128h-128zM256 256v128h128v-128h-128zM384 384v128h128v-128h-128zM512 512v128h128v-128h-128z" />
    <glyph glyph-name="zero" unicode="0" 
d="M192 192v256h256v-256h-256zM576 64v512h-512v-512h512zM0 0v640h640v-640h-640z" />
    <glyph glyph-name="one" unicode="1" 
d="M512 64v128h-128v384h-256v-128h128v-256h-128v-128h384zM0 0v640h640v-640h-640z" />
    <glyph glyph-name="two" unicode="2" 
d="M576 64v128h-384v64h384v320h-512v-128h384v-64h-384v-320h512zM0 0v640h640v-640h-640z" />
    <glyph glyph-name="three" unicode="3" 
d="M576 64v512h-512v-128h384v-64h-384v-128h384v-64h-384v-128h512zM0 0v640h640v-640h-640z" />
    <glyph glyph-name="four" unicode="4" 
d="M576 64v512h-128v-192h-256v192h-128v-320h384v-192h128zM0 0v640h640v-640h-640z" />
    <glyph glyph-name="five" unicode="5" 
d="M576 64v320h-384v64h384v128h-512v-320h384v-64h-384v-128h512zM0 0v640h640v-640h-640z" />
    <glyph glyph-name="six" unicode="6" 
d="M192 192v64h256v-64h-256zM576 64v320h-384v192h-128v-512h512zM0 0v640h640v-640h-640z" />
    <glyph glyph-name="seven" unicode="7" 
d="M576 64v512h-512v-128h384v-384h128zM0 0v640h640v-640h-640z" />
    <glyph glyph-name="eight" unicode="8" 
d="M192 192v64h256v-64h-256zM192 384v64h256v-64h-256zM576 64v512h-512v-512h512zM0 0v640h640v-640h-640z" />
    <glyph glyph-name="nine" unicode="9" 
d="M192 384v64h256v-64h-256zM576 64v512h-512v-320h384v-192h128zM0 0v640h640v-640h-640z" />
    <glyph glyph-name="colon" unicode=":" horiz-adv-x="192" 
d="M0 0v128h128v-128h-128zM0 512v128h128v-128h-128z" />
    <glyph glyph-name="semicolon" unicode=";" horiz-adv-x="192" 
d="M0 0v192h128v-192h-128zM0 512v128h128v-128h-128z" />
    <glyph glyph-name="less" unicode="&#x3c;" horiz-adv-x="448" 
d="M256 0v128h128v-128h-128zM128 128v128h128v-128h-128zM0 256v128h128v-128h-128zM128 384v128h128v-128h-128zM256 512v128h128v-128h-128z" />
    <glyph glyph-name="equal" unicode="=" horiz-adv-x="640" 
d="M0 128v128h576v-128h-576zM0 384v128h576v-128h-576z" />
    <glyph glyph-name="greater" unicode="&#x3e;" horiz-adv-x="448" 
d="M0 0v128h128v-128h-128zM128 128v128h128v-128h-128zM256 256v128h128v-128h-128zM128 384v128h128v-128h-128zM0 512v128h128v-128h-128z" />
    <glyph glyph-name="question" unicode="?" 
d="M256 0v128h128v-128h-128zM256 256v128h256v128h-512v128h640v-384h-384z" />
    <glyph glyph-name="at" unicode="@" 
d="M0 0v640h640v-448h-448v256h128v-128h192v192h-384v-384h512v-128h-640z" />
    <glyph glyph-name="A" unicode="A" 
d="M512 384v128h-384v-128h384zM0 0v640h640v-640h-128v256h-384v-256h-128z" />
    <glyph glyph-name="B" unicode="B" 
d="M512 128v128h-384v-128h384zM512 384v128h-384v-128h384zM0 0v640h640v-640h-640z" />
    <glyph glyph-name="C" unicode="C" 
d="M512 256v128h128v-128h-128zM0 0v640h640v-128h-512v-384h512v-128h-640z" />
    <glyph glyph-name="D" unicode="D" 
d="M0 0v512h128v-384h384v384h-384v128h512v-640h-640z" />
    <glyph glyph-name="E" unicode="E" 
d="M0 0v640h640v-128h-512v-128h512v-128h-512v-128h512v-128h-640z" />
    <glyph glyph-name="F" unicode="F" 
d="M512 0v128h128v-128h-128zM0 0v640h640v-128h-512v-128h512v-128h-512v-256h-128z" />
    <glyph glyph-name="G" unicode="G" 
d="M0 0v640h640v-128h-512v-384h384v128h128v-256h-640z" />
    <glyph glyph-name="H" unicode="H" 
d="M0 0v640h128v-256h384v256h128v-640h-128v256h-384v-256h-128z" />
    <glyph glyph-name="I" unicode="I" 
d="M0 256v128h128v-128h-128zM512 256v128h128v-128h-128zM128 0v128h128v384h-128v128h384v-128h-128v-384h128v-128h-384z" />
    <glyph glyph-name="J" unicode="J" 
d="M0 256v128h128v-128h-128zM0 0v128h512v384h-512v128h640v-640h-640z" />
    <glyph glyph-name="K" unicode="K" 
d="M512 0v256h128v-256h-128zM0 0v640h128v-256h384v-128h-384v-256h-128zM512 384v256h128v-256h-128z" />
    <glyph glyph-name="L" unicode="L" 
d="M0 0v640h128v-512h512v-128h-640zM512 512v128h128v-128h-128z" />
    <glyph glyph-name="M" unicode="M" 
d="M0 0v640h640v-640h-128v512h-128v-512h-128v512h-128v-512h-128z" />
    <glyph glyph-name="N" unicode="N" 
d="M256 0v128h128v-128h-128zM0 0v640h640v-640h-128v512h-384v-512h-128z" />
    <glyph glyph-name="O" unicode="O" 
d="M512 128v384h-384v-384h384zM0 0v640h640v-640h-640z" />
    <glyph glyph-name="P" unicode="P" 
d="M512 384v128h-384v-128h384zM0 0v640h640v-384h-512v-256h-128z" />
    <glyph glyph-name="Q" unicode="Q" 
d="M0 0v640h640v-512h-128v384h-384v-384h384v-128h-512z" />
    <glyph glyph-name="R" unicode="R" 
d="M512 384v128h-384v-128h384zM0 0v640h640v-384h-128v-128h128v-128h-256v256h-256v-256h-128z" />
    <glyph glyph-name="S" unicode="S" 
d="M0 0v128h512v128h-512v384h640v-128h-512v-128h512v-384h-640z" />
    <glyph glyph-name="T" unicode="T" 
d="M0 0v128h128v-128h-128zM512 0v128h128v-128h-128zM256 0v512h-256v128h640v-128h-256v-512h-128z" />
    <glyph glyph-name="U" unicode="U" 
d="M256 512v128h128v-128h-128zM0 0v640h128v-512h384v512h128v-640h-640z" />
    <glyph glyph-name="V" unicode="V" 
d="M128 0v128h384v-128h-384zM0 128v512h128v-512h-128zM512 128v512h128v-512h-128z" />
    <glyph glyph-name="W" unicode="W" 
d="M0 0v640h128v-512h128v512h128v-512h128v512h128v-640h-640z" />
    <glyph glyph-name="X" unicode="X" 
d="M0 0v128h128v-128h-128zM512 0v128h128v-128h-128zM128 128v128h128v-128h-128zM384 128v128h128v-128h-128zM256 256v128h128v-128h-128zM128 384v128h128v-128h-128zM384 384v128h128v-128h-128zM0 512v128h128v-128h-128zM512 512v128h128v-128h-128z" />
    <glyph glyph-name="Y" unicode="Y" 
d="M256 0v256h-256v384h128v-256h384v256h128v-384h-256v-256h-128z" />
    <glyph glyph-name="Z" unicode="Z" 
d="M0 0v384h512v128h-512v128h640v-384h-512v-128h512v-128h-640z" />
    <glyph glyph-name="bracketleft" unicode="[" horiz-adv-x="320" 
d="M0 -128v896h256v-128h-128v-640h128v-128h-256z" />
    <glyph glyph-name="backslash" unicode="\" 
d="M512 0v128h128v-128h-128zM384 128v128h128v-128h-128zM256 256v128h128v-128h-128zM128 384v128h128v-128h-128zM0 512v128h128v-128h-128z" />
    <glyph glyph-name="bracketright" unicode="]" horiz-adv-x="320" 
d="M0 -128v128h128v640h-128v128h256v-896h-256z" />
    <glyph glyph-name="asciicircum" unicode="^" horiz-adv-x="448" 
d="M0 384v128h128v-128h-128zM256 384v128h128v-128h-128zM128 512v128h128v-128h-128z" />
    <glyph glyph-name="underscore" unicode="_" 
d="M0 -128v128h640v-128h-640z" />
    <glyph glyph-name="grave" unicode="`" horiz-adv-x="448" 
d="M256 384v128h128v-128h-128zM128 512v128h128v-128h-128z" />
    <glyph glyph-name="a" unicode="a" 
d="M192 384v64h256v-64h-256zM576 64v512h-512v-512h128v192h256v-192h128zM0 0v640h640v-640h-640z" />
    <glyph glyph-name="b" unicode="b" 
d="M192 192v64h256v-64h-256zM192 384v64h256v-64h-256zM576 64v512h-512v-512h512zM0 0v640h640v-640h-640z" />
    <glyph glyph-name="c" unicode="c" 
d="M576 64v128h-384v256h384v128h-512v-512h512zM0 0v640h640v-640h-640z" />
    <glyph glyph-name="d" unicode="d" 
d="M192 192v256h256v-256h-256zM576 64v512h-384v-128h-128v-384h512zM0 0v640h640v-640h-640z" />
    <glyph glyph-name="e" unicode="e" 
d="M576 64v128h-384v64h384v128h-384v64h384v128h-512v-512h512zM0 0v640h640v-640h-640z" />
    <glyph glyph-name="f" unicode="f" 
d="M192 64v192h384v128h-384v64h384v128h-512v-512h128zM0 0v640h640v-640h-640z" />
    <glyph glyph-name="g" unicode="g" 
d="M576 64v256h-128v-128h-256v256h384v128h-512v-512h512zM0 0v640h640v-640h-640z" />
    <glyph glyph-name="h" unicode="h" 
d="M576 64v512h-128v-192h-256v192h-128v-512h128v192h256v-192h128zM0 0v640h640v-640h-640z" />
    <glyph glyph-name="i" unicode="i" 
d="M512 64v128h-128v256h128v128h-384v-128h128v-256h-128v-128h384zM0 0v640h640v-640h-640z" />
    <glyph glyph-name="j" unicode="j" 
d="M576 64v512h-512v-128h384v-256h-384v-128h512zM0 0v640h640v-640h-640z" />
    <glyph glyph-name="k" unicode="k" 
d="M576 64v192h-128v128h128v192h-128v-192h-256v192h-128v-512h128v192h256v-192h128zM0 0v640h640v-640h-640z" />
    <glyph glyph-name="l" unicode="l" 
d="M576 64v128h-384v384h-128v-512h512zM0 0v640h640v-640h-640z" />
    <glyph glyph-name="m" unicode="m" 
d="M576 64v512h-512v-512h128v384h64v-384h128v384h64v-384h128zM0 0v640h640v-640h-640z" />
    <glyph glyph-name="n" unicode="n" 
d="M576 64v512h-512v-512h128v384h256v-384h128zM0 0v640h640v-640h-640z" />
    <glyph glyph-name="o" unicode="o" 
d="M192 192v256h256v-256h-256zM576 64v512h-512v-512h512zM0 0v640h640v-640h-640z" />
    <glyph glyph-name="p" unicode="p" 
d="M192 384v64h256v-64h-256zM192 64v192h384v320h-512v-512h128zM0 0v640h640v-640h-640z" />
    <glyph glyph-name="q" unicode="q" 
d="M192 192v256h256v-256h-256zM448 64v128h128v384h-512v-512h384zM0 0v640h640v-640h-640z" />
    <glyph glyph-name="r" unicode="r" 
d="M192 384v64h256v-64h-256zM576 64v128h-128v64h128v320h-512v-512h128v192h128v-192h256zM0 0v640h640v-640h-640z" />
    <glyph glyph-name="s" unicode="s" 
d="M576 64v320h-384v64h384v128h-512v-320h384v-64h-384v-128h512zM0 0v640h640v-640h-640z" />
    <glyph glyph-name="t" unicode="t" 
d="M384 64v384h192v128h-512v-128h192v-384h128zM0 0v640h640v-640h-640z" />
    <glyph glyph-name="u" unicode="u" 
d="M576 64v512h-128v-384h-256v384h-128v-512h512zM0 0v640h640v-640h-640z" />
    <glyph glyph-name="v" unicode="v" 
d="M448 64v128h128v384h-128v-384h-256v384h-128v-384h128v-128h256zM0 0v640h640v-640h-640z" />
    <glyph glyph-name="w" unicode="w" 
d="M576 64v512h-128v-384h-64v384h-128v-384h-64v384h-128v-512h512zM0 0v640h640v-640h-640z" />
    <glyph glyph-name="x" unicode="x" 
d="M576 64v192h-128v128h128v192h-128v-192h-256v192h-128v-192h128v-128h-128v-192h128v192h256v-192h128zM0 0v640h640v-640h-640z" />
    <glyph glyph-name="y" unicode="y" 
d="M384 64v256h-128v-256h128zM192 320v256h-128v-256h128zM576 320v256h-128v-256h128zM0 0v640h640v-640h-640z" />
    <glyph glyph-name="z" unicode="z" 
d="M576 64v128h-384v64h384v320h-512v-128h384v-64h-384v-320h512zM0 0v640h640v-640h-640z" />
    <glyph glyph-name="braceleft" unicode="{" horiz-adv-x="448" 
d="M128 -128v384h-128v128h128v384h256v-128h-128v-640h128v-128h-256z" />
    <glyph glyph-name="bar" unicode="|" horiz-adv-x="192" 
d="M0 -128v896h128v-896h-128z" />
    <glyph glyph-name="braceright" unicode="}" horiz-adv-x="448" 
d="M0 -128v128h128v640h-128v128h256v-384h128v-128h-128v-384h-256z" />
    <glyph glyph-name="asciitilde" unicode="~" horiz-adv-x="448" 
d="M0 128v256h256v128h128v-256h-256v-128h-128z" />
    <glyph glyph-name="quoteleft" unicode="&#x2018;" horiz-adv-x="192" 
d="M0 448v192h128v-192h-128z" />
    <glyph glyph-name="quoteright" unicode="&#x2019;" horiz-adv-x="192" 
d="M0 448v192h128v-192h-128z" />
    <glyph glyph-name="quotedblleft" unicode="&#x201c;" horiz-adv-x="384" 
d="M0 448v192h128v-192h-128zM192 448v192h128v-192h-128z" />
    <glyph glyph-name="quotedblright" unicode="&#x201d;" horiz-adv-x="384" 
d="M0 448v192h128v-192h-128zM192 448v192h128v-192h-128z" />
  </font>
</defs>
</svg>
